<svg width="28" height="28" viewBox="0 0 28 28" fill="none" xmlns="http://www.w3.org/2000/svg">
<path d="M17.6268 9.72002L11.9068 15.4534L9.70675 13.2534C9.58722 13.1138 9.44013 13.0004 9.27471 12.9204C9.10929 12.8404 8.92912 12.7954 8.74549 12.7883C8.56187 12.7812 8.37876 12.8121 8.20766 12.8792C8.03656 12.9462 7.88116 13.0479 7.75122 13.1778C7.62128 13.3078 7.5196 13.4632 7.45257 13.6343C7.38554 13.8054 7.3546 13.9885 7.36169 14.1721C7.36878 14.3557 7.41376 14.5359 7.49379 14.7013C7.57382 14.8667 7.68718 15.0138 7.82675 15.1334L10.9601 18.28C11.0847 18.4036 11.2324 18.5014 11.3949 18.5677C11.5573 18.6341 11.7313 18.6677 11.9068 18.6667C12.2565 18.6652 12.5917 18.5263 12.8401 18.28L19.5068 11.6134C19.6317 11.4894 19.7309 11.3419 19.7986 11.1795C19.8663 11.017 19.9012 10.8427 19.9012 10.6667C19.9012 10.4907 19.8663 10.3164 19.7986 10.1539C19.7309 9.99144 19.6317 9.84397 19.5068 9.72002C19.2569 9.47169 18.919 9.3323 18.5668 9.3323C18.2145 9.3323 17.8766 9.47169 17.6268 9.72002ZM14.0001 0.666687C11.363 0.666687 8.78514 1.44867 6.59248 2.91376C4.39983 4.37884 2.69086 6.46123 1.68169 8.89757C0.672525 11.3339 0.408481 14.0148 0.92295 16.6012C1.43742 19.1876 2.7073 21.5634 4.572 23.4281C6.4367 25.2928 8.81247 26.5627 11.3989 27.0772C13.9853 27.5916 16.6662 27.3276 19.1025 26.3184C21.5389 25.3092 23.6213 23.6003 25.0863 21.4076C26.5514 19.215 27.3334 16.6371 27.3334 14C27.3334 12.2491 26.9885 10.5152 26.3185 8.89757C25.6484 7.2799 24.6663 5.81004 23.4282 4.57193C22.1901 3.33382 20.7202 2.35169 19.1025 1.68163C17.4849 1.01156 15.751 0.666687 14.0001 0.666687ZM14.0001 24.6667C11.8904 24.6667 9.82813 24.0411 8.074 22.869C6.31988 21.697 4.95271 20.0311 4.14537 18.082C3.33804 16.1329 3.1268 13.9882 3.53838 11.9191C3.94995 9.84993 4.96586 7.94931 6.45761 6.45755C7.94938 4.96579 9.84999 3.94989 11.9191 3.53831C13.9883 3.12674 16.133 3.33797 18.082 4.14531C20.0311 4.95264 21.697 6.31981 22.8691 8.07394C24.0412 9.82806 24.6668 11.8904 24.6668 14C24.6668 16.829 23.5429 19.5421 21.5426 21.5425C19.5422 23.5429 16.8291 24.6667 14.0001 24.6667Z" fill="#6FCF97"/>
</svg>
